<svg id="Thumbnails" xmlns="http://www.w3.org/2000/svg" viewBox="0 0 750 750"><defs><style>.cls-1{fill:#fff;}.cls-1,.cls-3{stroke:#000;stroke-width:10px;}.cls-1,.cls-2,.cls-3{stroke-miterlimit:10;}.cls-2{fill:none;stroke:#fff;stroke-width:15px;}.cls-4{fill:#231f20;}</style></defs><g id="head_4" data-name="head 4"><path class="cls-1" d="M401.75,683.47h54.6a18.36,18.36,0,0,0,18.19-20.69c-3.32-26.08-2.26-68,37.68-72.36,56.6-6.14,93.63-28.2,91.74-121.88a24.48,24.48,0,0,1,4.83-15.2c2.5-3.32,4.92-7.2,4.74-9.54-.77-9.93-19.75-7.73-27.74-13.68C572.24,420,575.92,363.44,573.7,344c-5.73-50.2-89.52-186-255.41-84.4-142.29,87.12-18.17,272.26,20,323.18a48.63,48.63,0,0,1,9.72,30.51l-.29,50.51S358.79,683.47,401.75,683.47Z"/><path class="cls-2" d="M401.75,683.47s-41.07,0-54-19.66"/><path class="cls-3" d="M535.78,586.52s-69.87,10.72-93.25,10l30,61.38s1.46-51.08,16.81-58.46S535.78,586.52,535.78,586.52Z"/><path class="cls-1" d="M429.51,481.09c-24,9.61-37.26-4.84-37.26-4.84-13-25.23,0-59.85,0-59.85,14-19.21,50,25.65,50,25.65"/><path class="cls-4" d="M391.9,469.77c-9.67-6.76-10.84-22.73-2.64-49.15,6.46-20.8,35.61,4.51,47.72,16.21,2.46,2.38,7.78,4.89,8.95,1.68,10.06-27.8,50.53-129.34,127.89-94.28,10.52,4.77,105.41-100.5,6.72-200.53S325.46,35.34,223.61,151.46,90.74,383.77,169,468.47c77,83.43,138.12,120.58,163.7,130.81,29.86,12,65.86-55.76,74.54-79.65,11.7-32.16-8.77-38.74-8.77-38.74"/></g></svg>