<svg id="Thumbnails" xmlns="http://www.w3.org/2000/svg" viewBox="0 0 750 750"><defs><style>.cls-1{fill:#fff;}.cls-1,.cls-3{stroke:#000;stroke-width:10px;}.cls-1,.cls-2,.cls-3{stroke-miterlimit:10;}.cls-2{fill:none;stroke:#fff;stroke-width:15px;}</style></defs><g id="head_3" data-name="head 3"><path class="cls-1" d="M332.36,693.24H407.8a25.36,25.36,0,0,0,25.13-28.6c-4.59-36-3.12-94,52.07-100,78.21-8.49,129.37-39,126.76-168.41a33.81,33.81,0,0,1,6.68-21c3.44-4.58,6.8-9.94,6.55-13.17-1.07-13.73-27.29-10.69-38.33-18.91-18.72-14-13.64-92.13-16.7-119C562,154.82,446.26-32.79,217,107.57,20.43,228,191.94,483.76,244.72,554.12a67.22,67.22,0,0,1,13.44,42.16l-.41,69.79S273,693.24,332.36,693.24Z"/><path class="cls-2" d="M332.36,693.24s-56.76,0-74.61-27.17"/><path class="cls-3" d="M517.55,559.27S421,574.09,388.7,573.08l41.4,84.82s2-70.58,23.23-80.78S517.55,559.27,517.55,559.27Z"/><path class="cls-1" d="M370.71,413.59c-33.13,13.28-51.48-6.68-51.48-6.68-18-34.87,0-82.7,0-82.7,19.4-26.54,69.13,35.45,69.13,35.45"/></g></svg>