<svg id="Thumbnails" xmlns="http://www.w3.org/2000/svg" viewBox="0 0 750 750"><defs><style>.cls-1{fill:#231f20;}.cls-2{fill:#fff;}.cls-2,.cls-4{stroke:#000;stroke-width:10px;}.cls-2,.cls-3,.cls-4{stroke-miterlimit:10;}.cls-3{fill:none;stroke:#fff;stroke-width:15px;}</style></defs><g id="head_2" data-name="head 2"><path class="cls-1" d="M566.82,443.56s-17.3,82.5,39.26,101.57-28.28,75-64.46,51.31-53.93-28.22-88.13-14.11-30-3.22-30-3.22L542.94,425.43Z"/><path class="cls-2" d="M382,620.87h55.62a18.7,18.7,0,0,0,18.53-21.09c-3.38-26.56-2.31-69.3,38.39-73.71,57.66-6.26,95.38-28.72,93.46-124.16a24.89,24.89,0,0,1,4.92-15.49c2.54-3.38,5-7.33,4.83-9.72-.79-10.12-20.12-7.87-28.26-13.94-13.8-10.29-20.63-69.61-12.32-87.71,19-41.32-91.2-189.48-260.2-86-145,88.75-18.51,277.36,20.41,329.24a49.54,49.54,0,0,1,9.91,31.08l-.3,51.45S338.23,620.87,382,620.87Z"/><path class="cls-3" d="M382,620.87s-41.85,0-55-20"/><path class="cls-4" d="M518.53,522.09s-71.17,10.93-95,10.18l30.52,62.54s1.49-52,17.12-59.56S518.53,522.09,518.53,522.09Z"/><path class="cls-1" d="M410.67,414.64s-46.31-23.7-39.24-44.43,8.63-25.75,14.89-22.34,16.8,9.84,16.8,9.84,118.35,32.47,148.12-57.28l12.85,54.4s13.53-10.8,23.74-60.38-31.78-99.58-102.17-147.87-163.77,19-163.77,19-105.58,54.92-109,162.64c-1.69,52.48-15.34,65.59-32.19,71-34.56,11-57.12,44.3-55.58,80.54,1.9,44.26,14,101,63.18,104.49,81.22,5.7,43.27-40.69,103.3.91,42,29.12,47.79,35.84,68.14,33.58,23.31-2.6,41.16-22,42.42-45.45Z"/><path class="cls-2" d="M410.27,414.69c-24.43,9.79-37.95-4.93-37.95-4.93-13.25-25.71,0-61,0-61,14.3-19.57,51,26.14,51,26.14"/></g></svg>