<svg id="Thumbnails" xmlns="http://www.w3.org/2000/svg" viewBox="0 0 750 750"><defs><style>.cls-1{fill:#fff;}.cls-1,.cls-3,.cls-4{stroke:#000;stroke-width:10px;}.cls-1,.cls-2,.cls-3,.cls-4{stroke-miterlimit:10;}.cls-2,.cls-3{fill:none;}.cls-2{stroke:#fff;stroke-width:15px;}.cls-5{fill:#231f20;}</style></defs><g id="head_1" data-name="head 1"><path class="cls-1" d="M345.81,681.79H412.2a22.31,22.31,0,0,0,22.11-25.16c-4-31.71-2.74-82.73,45.83-88C549,561.17,594,534.35,591.7,420.43a29.76,29.76,0,0,1,5.88-18.5c3-4,6-8.74,5.76-11.59-.94-12.08-24-9.4-33.73-16.64C553.13,361.42,545,290.6,554.91,269,577.57,219.67,446,42.82,244.31,166.35c-173,106-22.09,331.08,24.37,393a59.17,59.17,0,0,1,11.82,37.1l-.36,61.42S293.56,681.79,345.81,681.79Z"/><path class="cls-2" d="M345.81,681.79s-50,0-65.67-23.91"/><path class="cls-3" d="M404,399.76s-43.77-54.55-60.84-31.19c0,0-15.81,42.09,0,72.78,0,0,16.14,17.57,45.3,5.88,0,0,1.62-2.64-13.05,35.12"/><path class="cls-4" d="M508.79,563.89s-85,13-113.4,12.15l36.44,74.65s1.77-62.12,20.44-71.1S508.79,563.89,508.79,563.89Z"/><path class="cls-5" d="M443.84,340.29s50.88-75,126.67-71.45,61-89,24.87-80.6S431.49,96,404.33,79.18,291.17,55.72,218.55,128.59c0,0-66.44-6.45-86.41,84-18.48,83.65-.49,176.54,47,233.07a267.61,267.61,0,0,1,32.52,48.27A354.86,354.86,0,0,1,227,527.18s5.08,12.42,9.51,27.34c6.37,21.49,28.26,31.7,44.76,20.89,17.79-11.66,38.93-26.6,57.95-42.95C382.79,495,391.11,450,391.11,450c-8.19,3.34-19.57,7.32-33.08.6s-19.2-27.84-16.3-65.2,37.61-7.49,37.61-7.49,42.08,40.55,57.71,46.25,7.25-81.5,7.25-81.5"/></g></svg>