<svg id="Thumbnails" xmlns="http://www.w3.org/2000/svg" viewBox="0 0 750 750"><defs><style>.cls-1,.cls-5{fill:#fff;}.cls-1,.cls-3{stroke:#000;stroke-width:10px;}.cls-1,.cls-2,.cls-3,.cls-5,.cls-6{stroke-miterlimit:10;}.cls-2,.cls-6{fill:none;}.cls-2{stroke:#fff;}.cls-2,.cls-5,.cls-6{stroke-width:15px;}.cls-4{fill:#231f20;}.cls-5,.cls-6{stroke:#231f20;}</style></defs><g id="head_5" data-name="head 5"><path class="cls-1" d="M369.82,677.05H435.6a22.1,22.1,0,0,0,21.91-24.93c-4-31.42-2.72-82,45.41-87.19,68.2-7.39,112.81-34,110.54-146.84a29.49,29.49,0,0,1,5.82-18.33c3-4,5.93-8.66,5.71-11.48-.93-12-23.8-9.32-33.43-16.49C575.24,359.62,579.67,291.45,577,268,570.09,207.55,469.14,44,269.25,166.34c-171.44,105-21.88,328,24.15,389.4a58.63,58.63,0,0,1,11.71,36.77l-.35,60.85S318.05,677.05,369.82,677.05Z"/><path class="cls-2" d="M369.82,677.05s-49.5,0-65.06-23.69"/><path class="cls-3" d="M531.3,560.23s-84.18,12.92-112.36,12l36.11,74s1.76-61.55,20.25-70.44S531.3,560.23,531.3,560.23Z"/><path class="cls-1" d="M403.26,433.2c-28.89,11.58-44.89-5.82-44.89-5.82-15.67-30.41,0-72.12,0-72.12,16.91-23.15,60.28,30.91,60.28,30.91"/><path class="cls-4" d="M243.42,128.76s-65.82-6.4-85.61,83.21c-18.31,82.88-.49,174.91,46.52,230.92a265,265,0,0,1,32.21,47.83,350.61,350.61,0,0,1,15.21,33s5,12.31,9.42,27.09c6.31,21.3,28,31.41,44.34,20.7,17.63-11.55,38.58-26.36,57.42-42.56,43.23-37.16,41.62-92.42,41.62-92.42-8.11,3.31-20.25.88-27.3,0-17.16-2.15-42.26-24.66-21.13-75.73,14.2-34.3,62.52,25.54,62.52,25.54s9.68,7,23.67,0c14.74-7.38,24.76-51.11,24.76-51.11"/><path class="cls-4" d="M466.64,338.51s31-93.95,106.09-90.46c0,0-77.46-199.85-329.31-119.29"/><path class="cls-5" d="M582,115.53s-205.17-86.29-332-13.2S125,209,125,209s-1.86,95.61,31.63,87.38S573.74,155.56,582,115.53Z"/><path class="cls-5" d="M475.12,128.66s104.22-48.35,129.75,12.41-32.14,98.73-32.14,98.73S462.16,348.7,346.44,349.65A48.36,48.36,0,0,0,326.59,354c-25.11,11.53-87.09,46-105,111.71,0,0-112.2-50.39-94.72-127.19S429.9,143.54,475.12,128.66Z"/><path class="cls-6" d="M530,274.91c20.33-29.61,38.17-62.68,51.35-88.43,10.5-20.52,18-36.39,21.5-42.14a.78.78,0,0,0-1.12-1c-11.12,7.94-51.1,36.26-105.08,71.95C396,281.83,246.53,374,144.91,407.27c0,0,66.37-19,201.53-66.43,0,0,183.26-76.37,234.94-154.36"/><path class="cls-6" d="M129.7,330.24s79.85,55.09,144.55,19.25"/><path class="cls-5" d="M419.08,75.91S199.76,126.72,156.65,296.36"/></g></svg>