<svg id="Thumbnails" xmlns="http://www.w3.org/2000/svg" viewBox="0 0 750 750"><defs><style>.cls-1{fill:#fff;stroke:#231f20;}.cls-1,.cls-3{stroke-miterlimit:10;stroke-width:10px;}.cls-2,.cls-3{fill:#231f20;}.cls-3{stroke:#fff;}</style></defs><g id="maxi"><path class="cls-1" d="M384.43,278.57s-8.19,83.5-4.86,101"/><path class="cls-1" d="M438.93,652.62s19.16,15.42,26,10.85"/><path class="cls-2" d="M275.1,642.43a22.08,22.08,0,0,0-8.88,12.79c-1.85,7.4-2.8,15.77,5.5,17.08,11.75,1.86,33.12,5,40.49,0s47.2-37.21,47.2-37.21,5.71-14.09-7.81-16.61h0c-3.37-.9-9.91.57-11.66,3.6-3,5.19-8.1,12.53-13.57,13.52l-28.71-8.75Z"/><path class="cls-1" d="M345.63,478.53l1.74,128.15s10.18,14.8,2.06,20.33-24.16,27.15-56.11,5.67c0,0,20.05-6.42,19.35-20.3-.62-12.32-16.62-111.88-20.2-134"/><path class="cls-1" d="M454.75,490.66c-2.65,4.73-23.74,100.83-26,108s-3.62,13.47-1.31,19.57,15.44,3.71,2,16.25c-9,8.36.23,12.65-4.18,13.13-16.42,1.79-53.13,6.27-38.8-26.16,1.23-2.78,9.55-41.89,9.55-41.89"/><path class="cls-2" d="M430.86,623.43s14.14-2.69,18.88,2.08C453.14,628.94,468,640,476.06,646a18.27,18.27,0,0,1,7.21,12c1,6.6-4.78,10.09-11.47,11.9-9.37,2.53-34.6.34-47.16-.3-2.69-.13-19-4.1-21.49-5.07-11.73-4.52-29.37-12.7-27.75-17.91,1.94-6.26.26-9.69,4.53-8,38.14,15.17,35.32,6.12,39.94,8S407.84,636.26,430.86,623.43Z"/><path class="cls-3" d="M272.64,77.32S367.88,107.1,453.73,75c0,0,71,230.18-.88,470a34.92,34.92,0,0,1-23.59,23.54,183.11,183.11,0,0,1-116.68-5,28,28,0,0,1-17.77-22.4C285.51,471.23,250.12,187.69,272.64,77.32Z"/></g></svg>