<svg id="Thumbnails" xmlns="http://www.w3.org/2000/svg" viewBox="0 0 750 750"><defs><style>.cls-1{fill:#fff;}.cls-1,.cls-2{stroke:#000;}.cls-1,.cls-2,.cls-3{stroke-miterlimit:10;stroke-width:10px;}.cls-2{fill:none;}.cls-3{stroke:#fff;}</style></defs><g id="pants"><path class="cls-1" d="M231.08,572.4c-9.48.12-9.3,4.24-9.3,4.24l.06,14.84C216.62,604.82,204,618.31,204,618.31c-10.43,15.22-17.29,27.8-13.12,46.51s49.79,7.15,52.77.59,24.15-27.58,24.15-27.58.6-.74-.3-41.27c-.18-8.32,2.09-24.16-8.39-21.68V533.67l-30.37,4.45Z"/><path class="cls-2" d="M231.08,572.4l1.19,13.71s23.57,11.93,25.2.3"/><path class="cls-1" d="M490,572.18l-4-27.73-31-8.58L459.67,568c-1,.33-11.51,3.92-10.95,8.69.44,3.79.2,36.15.06,51.56a9.79,9.79,0,0,0,7.92,9.71c15.18,2.93,47.89,8.87,62.07,8.42,9.75-.3,15-1.9,26.35-3.36a17.51,17.51,0,0,0,14.3-23.13c-3.73-10.71-10.53-21.79-22.76-22.7-24.15-1.78-27.43-5.66-30.11-10.13s-4.77-24.45-8.05-23.55-11.77,2.35-7.16,13.11-30.41,9.24-30.41,9.24"/><path class="cls-3" d="M457.57,547.38c8.15,3.72,14.82,4.66,20.17,4.16a18.21,18.21,0,0,0,16.34-20.11c-5.3-49.29-22.56-246.27-22.56-246.27L423.82,75c-62.9,41.76-190.65.13-190.65.13C219,133.88,203.8,539.76,220.7,551.67c10.17,7.17,25.86,5.71,36.73,3.41a17.65,17.65,0,0,0,13.83-14.91l39-289.89c1.54-16.68,6.86-77.52,18.49-83.78.23-.12,8.84-3.81,9.1-3.78,21.9,2,24.11,30.93,26.07,39.86L445.26,532A22,22,0,0,0,457.57,547.38Z"/><line class="cls-1" x1="459.67" y1="567.95" x2="460.64" y2="573.59"/></g></svg>