<svg id="Thumbnails" xmlns="http://www.w3.org/2000/svg" viewBox="0 0 750 750"><defs><style>.cls-1,.cls-2{fill:#fff;}.cls-1,.cls-5{stroke:#000;}.cls-1,.cls-2,.cls-4,.cls-5{stroke-miterlimit:10;}.cls-1,.cls-2,.cls-5{stroke-width:10px;}.cls-2{stroke:#231f20;}.cls-3{fill:#231f20;}.cls-4{fill:none;stroke:#fff;stroke-width:15px;}</style></defs><g id="shorts"><path class="cls-1" d="M231.28,572.51c-9.47.12-9.29,4.24-9.29,4.24l.06,14.82c-5.22,13.33-17.87,26.8-17.87,26.8-10.42,15.21-17.27,27.77-13.1,46.46s49.73,7.15,52.71.6,24.12-27.56,24.12-27.56.6-.74-.3-41.23c-.18-8.3,2.09-24.13-8.38-21.65V553.78l-28.92-2.89Z"/><path class="cls-2" d="M232.4,585.34s-16.63-265.16-6.23-296.82l61.85,9L259.16,573.89S262.92,600.08,232.4,585.34Z"/><path class="cls-1" d="M559.18,619.21c-3.73-10.7-10.52-21.77-22.74-22.67-24.12-1.79-27.4-5.66-30.08-10.13s-4.77-24.42-8-23.52c-2.38.65-7.48,1.59-8.36,6.16L457,278l-56,12.9,56,259.22,2.52,17.31c-1,.32-11.49,3.91-10.93,8.68.44,3.79.2,36.1,0,51.51a9.79,9.79,0,0,0,7.92,9.69c15.16,2.93,47.84,8.87,62,8.42,9.74-.31,15-1.91,26.32-3.37A17.49,17.49,0,0,0,559.18,619.21Z"/><path class="cls-3" d="M233.29,75s-22.42,210.19-19.9,214.93c3.52,6.63,94.19,20.13,95.84,14.08,2.68-9.83,10.13-129.54,19.51-137.73,5.63-4.92,8.25-8.61,16-.14a47,47,0,0,1,11.14,21.65L380.32,299.4a5,5,0,0,0,5.93,3.77l85.47-19.66a6.62,6.62,0,0,0,4.91-8.15L423.59,75S378.92,115.8,233.29,75Z"/><line class="cls-1" x1="460.51" y1="574.11" x2="458.98" y2="563.61"/><line class="cls-4" x1="228.97" y1="583.81" x2="245.13" y2="589.63"/><path class="cls-1" d="M222.75,606.09s3.09,7,11,6.85"/><path class="cls-1" d="M216.32,617s5.08,6.6,11.92,5.24"/><path class="cls-1" d="M210.06,626.23s4.17,4.23,12.21,4.17"/><polygon class="cls-5" points="252.57 619.71 258.61 635.69 255.59 638.38 249.54 628.94 252.57 619.71"/><polygon class="cls-5" points="245.13 635.02 237.16 652.73 251.56 641.34 245.13 635.02"/><path class="cls-1" d="M553.26,628.31s-8,4.17-27.58,2.09"/><polygon class="cls-5" points="468.56 624.93 473.92 604.19 480.56 609.52 474.56 626.23 468.56 624.93"/><polygon class="cls-5" points="481.66 627.12 485.99 612.94 504.82 629.65 481.66 627.12"/><path class="cls-5" d="M507,592.58s2.09,2.38-7.44,3.27"/><path class="cls-1" d="M514.24,595.85s-1.31,3.28-4.59,3.58,12.66,0,12.66,0"/><path class="cls-1" d="M229,594.07c11.46,8.93,29.64,0,29.64,0l1.48-4.22a12.8,12.8,0,0,0-.26-9,13.91,13.91,0,0,1-.67-6.92c.74-6.17,5.1-5.73,6.89-10.28a.78.78,0,0,0,.05-.14,5.74,5.74,0,0,0-5.39-7.74c-11.27,0-35.72-4.84-35.72-4.84s-2.42,3.72.86,8.11S229,580.87,229,580.87"/><path class="cls-1" d="M449.94,562.85a7.77,7.77,0,0,1,6.58-8.35c11-1.76,35.54-5.46,36.72-3.61,1.52,2.38,6.08,4.67-2.75,14.84l-.24,8.38s-6.21,11.2-21.7,7.09-13.17-6.74-13.17-6.74l-1.68-8.21S450.34,566.92,449.94,562.85Z"/></g></svg>