<svg id="Thumbnails" xmlns="http://www.w3.org/2000/svg" viewBox="0 0 750 750"><defs><style>.cls-1{fill:#fff;stroke:#231f20;}.cls-1,.cls-2{stroke-miterlimit:10;stroke-width:10px;}.cls-2,.cls-3{fill:#231f20;}.cls-2{stroke:#fff;}</style></defs><g id="skirts_1" data-name="skirts 1"><path class="cls-1" d="M349.61,216.32s-8.12,82.89-4.81,100.28c3.54,18.61.85,89.75,4.81,273.73,0,0-20.69,16.68-30.4,4s-26.78-180-26.09-193.36-13.91-184.69-13.91-184.69Z"/><path class="cls-1" d="M443.18,544.4C468.71,362.64,469.53,258.48,468,225.16c-1.48-33-.67-53.13-.67-53.13l-74.28,12.68s10.67,40.11,10.67,58.42c0,19.27,15.39,102.94,0,344.48,0,0,19,15.3,25.81,10.77S443.18,544.4,443.18,544.4Z"/><path class="cls-2" d="M260.7,273.52h0"/><path class="cls-2" d="M471.78,233.74c25.71-15.48,16.16-61.71,12-87.19l-19-68.73c-.84-5.89.13-.95-5.82.46-29.46,7-111.51,23-172,2a10.33,10.33,0,0,0-13.66,7.93c-6.06,38.54-16.62,51.25-8.08,143.39,1.85,20,48.31,31,73.33,19.56a139,139,0,0,1,39.79-11.38Z"/><path class="cls-3" d="M282.57,642.67a21.87,21.87,0,0,0-8.81,12.69c-1.84,7.36-2.79,15.66,5.45,17,11.67,1.85,32.88,5,40.2,0s46.84-36.94,46.84-36.94,2.71-14-10.71-16.48h0a7.66,7.66,0,0,0-8.61,3.57c-3,5.15-8,12.44-13.47,13.42L305,627.21Z"/><path class="cls-1" d="M296.85,479.79a4.07,4.07,0,0,1,3.67-4.71L347.67,471c6.9-.6,1.94,9,1.94,9l1.73,127.2s13.07,14.7,5,20.18-24,26.95-55.7,5.63c0,0,16.94-6.37,16.25-20.15C316.29,600.61,300.4,501.79,296.85,479.79Z"/><path class="cls-1" d="M404.65,483.46a8.5,8.5,0,0,1,7.85-8.1c14.53-1.11,44.95-3,45.43.62.62,4.74,2.63,11.35,0,16s-23.57,100.09-25.84,107.2-3.6,13.36-1.3,19.42,18.28,3.68,4.95,16.13c-8.89,8.29.23,12.55-4.14,13-16.3,1.78-52.74,6.22-38.52-26,1.22-2.76,6.52-41.58,6.52-41.58S403.54,507.67,404.65,483.46Z"/><path class="cls-3" d="M437.18,623.81s14-2.67,18.74,2.07c3.37,3.4,18.07,14.41,26.12,20.37a18.1,18.1,0,0,1,7.16,12c1,6.55-4.74,10-11.39,11.82-9.29,2.51-34.34.34-46.81-.3-2.67-.13-18.83-4.07-21.33-5-11.64-4.49-29.15-12.61-27.55-17.78,1.93-6.22.26-9.62,4.5-7.94,37.87,15,35.06,6.07,39.64,7.94S414.33,636.54,437.18,623.81Z"/></g></svg>