<svg id="Thumbnails" xmlns="http://www.w3.org/2000/svg" viewBox="0 0 750 750"><defs><style>.cls-1{fill:#fff;}.cls-1,.cls-3{stroke:#000;stroke-width:10px;}.cls-1,.cls-2,.cls-3{stroke-miterlimit:10;}.cls-2,.cls-3{fill:none;}.cls-2{stroke:#fff;stroke-width:15px;}</style></defs><g id="top_1" data-name="top 1"><path class="cls-1" d="M322,617.42s33.67,5.22,81.79-19.59c0,0-19.35-262.94-37.38-294.43,0,0-35.54-71.18-62.27-82.89,0,0,6.55,19.06-39.27,11.17l-8.3,13.3Z"/><line class="cls-2" x1="264.88" y1="231.68" x2="256.58" y2="244.98"/><path class="cls-1" d="M304.15,220.51c78.58,75.39,75,131.49,75,131.49L403.8,597.83c115.93,19.74,92.65-19.74,92.65-19.74S421.53,298.91,418,281.36s-33.95-.59-33.95-.59l4.68-41c4.68-41-77.61-36.61-77.61-36.61s-6.28-1.4-7,2.32S304.15,220.51,304.15,220.51Z"/><path class="cls-1" d="M587.86,187.78l-23.25-21.11c-7.27-6.6-15.72-4.59-19.45,2.55-43.94,84.26-62,125.34-80.57,147.54-11,13.16-29.57,16.58-48.22,9.35-17.86-6.92-43.38-14.95-69.91-23.83.26-14.83-2.24-20.92-2.24-20.92L308,273.28l3.94-12.22c3.95-12.23-32.72-11.93-32.72-11.93-62.31-5.63-76.2-49.44-76.2-49.44s-11.15-23.9-58.6,11.83,7.19,70,7.19,70S124.45,340.92,125,437.32c.29,50.53,3.33,103,6,139.52a60,60,0,0,0,50.64,55l108.56,16.86a28.62,28.62,0,0,0,32.94-26.24l16.22-227.56,47.82,17.22c34.4,11.4,82.92,23.07,97.64-5.94L593.22,207.85C596.17,201.84,593.87,193.24,587.86,187.78Z"/><path class="cls-1" d="M256.58,491s-19.24,42.88-66.93,37.41"/><path class="cls-1" d="M545.39,191.86s17.7-1.78,30.32,19.51"/><path class="cls-1" d="M587.86,187.78s-.32-.07-31.78-25.13c0,0,3.86-28.17,9-32.51S606.47,101,611.2,101s1.58,6.1,0,8.76-16.7,17.82-16.7,17.82,26.56,6.14,30.5,31.77c0,0-.43,7.75-1.45,14.82a4.11,4.11,0,0,1-7.58,1.57,24.15,24.15,0,0,1-2.8-6.92S606.31,183.11,587.86,187.78Z"/><path class="cls-1" d="M615.93,158.54l-3.55,11"/><path class="cls-3" d="M151.58,281.36s24.32-35.06,76.15-23.16"/><path class="cls-1" d="M151.58,569.33s45.42,30.51,134.62,34"/><path class="cls-3" d="M255.91,266.07c42.31,23.59,120,44.46,159.8,59.88,18.65,7.23,37.18,3.81,48.21-9.36,18.6-22.19,36.64-63.28,80.57-147.54,3.73-7.13,12.19-9.14,19.45-2.55l23.25,21.12c6,5.46,8.31,14,5.37,20.07L484.12,406c-14.72,29-63.23,17.34-97.64,5.94L261.56,367"/></g></svg>